<svg width="296px" height="184px" viewBox="0 0 296 184" version="1.1" xmlns="http://www.w3.org/2000/svg" xmlns:xlink="http://www.w3.org/1999/xlink" xmlns:sketch="http://www.bohemiancoding.com/sketch/ns">
    <title>999 logo</title>
    <defs>
        <path id="path-1" d="M0,0.937 L294.064,0.937 L294.064,183 L0,183"></path>
        <path id="path-3" d="M0,0.937 L294.064,0.937 L294.064,183 L0,183"></path>
    </defs>
    <g id="Page-1" stroke="none" stroke-width="1" fill="none" fill-rule="evenodd" sketch:type="MSPage">
        <g id="Vector-Smart-Object" sketch:type="MSLayerGroup" transform="translate(1.000000, 0.000000)">
            <g id="Group-3">
                <mask id="mask-2" sketch:name="Clip 2" fill="white">
                    <use xlink:href="#path-1"></use>
                </mask>
                <g id="Clip-2"></g>
                <path d="M182.0026,137.0253 C164.8786,158.5093 141.6436,173.8363 112.3396,183.0003 C107.4396,183.0003 104.3406,182.0603 103.1716,180.3053 L89.1026,164.8903 C85.8236,161.2963 87.0346,157.7453 92.7456,154.1943 C116.8346,139.5403 131.0806,121.1143 135.5296,98.9583 C120.4746,97.3393 108.4296,92.2173 99.4866,83.4963 C90.4976,74.8243 86.0476,63.9023 86.0476,50.8243 C86.0476,35.0483 91.5296,22.5093 102.5416,13.3863 C112.2936,5.1173 125.5536,0.9373 142.2706,0.9373 C162.1816,0.9373 178.0016,7.4983 189.5976,20.6213 C201.1936,33.7913 207.0346,51.3183 207.0346,73.2063 C207.0346,95.0483 198.6766,116.3043 182.0026,137.0253" id="Fill-1" fill="#EF4825" sketch:type="MSShapeGroup" mask="url(#mask-2)"></path>
            </g>
            <g id="Group-6">
                <mask id="mask-4" sketch:name="Clip 5" fill="white">
                    <use xlink:href="#path-3"></use>
                </mask>
                <g id="Clip-5"></g>
                <path d="M62.7829,118.3166 C51.5789,132.3736 36.3759,142.4016 17.2029,148.3976 C13.9969,148.3976 11.9689,147.7836 11.2039,146.6346 L1.9989,136.5486 C-0.1461,134.1976 0.6459,131.8736 4.3819,129.5506 C20.1439,119.9626 29.4649,107.9066 32.3759,93.4096 C22.5259,92.3506 14.6439,88.9996 8.7929,83.2936 C2.9119,77.6186 -0.0001,70.4726 -0.0001,61.9156 C-0.0001,51.5936 3.5869,43.3896 10.7919,37.4206 C17.1729,32.0096 25.8479,29.2746 36.7869,29.2746 C49.8139,29.2746 60.1649,33.5676 67.7519,42.1546 C75.3399,50.7706 79.1619,62.2396 79.1619,76.5606 C79.1619,90.8516 73.6929,104.7596 62.7829,118.3166" id="Fill-4" fill="#FDBA29" sketch:type="MSShapeGroup" mask="url(#mask-4)"></path>
            </g>
            <path d="M277.6836,118.3166 C266.4806,132.3736 251.2786,142.4016 232.1036,148.3976 C228.8986,148.3976 226.8716,147.7836 226.0756,146.6346 L216.9006,136.5486 C214.7556,134.1976 215.5476,131.8736 219.2836,129.5506 C235.0156,119.9626 244.3656,107.9066 247.2776,93.4096 C237.4276,92.3506 229.5476,88.9996 223.6946,83.2936 C217.8136,77.6186 214.9026,70.4726 214.9026,61.9156 C214.9026,51.5936 218.4886,43.3896 225.6936,37.4206 C232.0746,32.0096 240.7186,29.2746 251.6596,29.2746 C264.7146,29.2746 275.0676,33.5676 282.6546,42.1546 C290.2416,50.7706 294.0636,62.2396 294.0636,76.5606 C294.0636,90.8516 288.5936,104.7596 277.6836,118.3166" id="Fill-7" fill="#ACB44D" sketch:type="MSShapeGroup"></path>
        </g>
    </g>
</svg>
